<svg width="1920" height="1080" viewBox="0 0 1920 1080" xmlns="http://www.w3.org/2000/svg">
  <defs>
    <linearGradient id="heroGradient" x1="0%" y1="0%" x2="100%" y2="100%">
      <stop offset="0%" style="stop-color:#1f2937;stop-opacity:1" />
      <stop offset="50%" style="stop-color:#374151;stop-opacity:0.9" />
      <stop offset="100%" style="stop-color:#111827;stop-opacity:1" />
    </linearGradient>
    
    <radialGradient id="lightGradient" cx="50%" cy="30%" r="40%">
      <stop offset="0%" style="stop-color:#10b981;stop-opacity:0.3" />
      <stop offset="100%" style="stop-color:#10b981;stop-opacity:0" />
    </radialGradient>
    
    <pattern id="musicPattern" x="0" y="0" width="100" height="100" patternUnits="userSpaceOnUse">
      <circle cx="20" cy="20" r="2" fill="#10b981" opacity="0.1"/>
      <circle cx="80" cy="60" r="1.5" fill="#10b981" opacity="0.1"/>
      <circle cx="50" cy="80" r="1" fill="#10b981" opacity="0.1"/>
    </pattern>
  </defs>
  
  <!-- Background -->
  <rect width="1920" height="1080" fill="url(#heroGradient)"/>
  
  <!-- Pattern overlay -->
  <rect width="1920" height="1080" fill="url(#musicPattern)"/>
  
  <!-- Stage lighting effect -->
  <ellipse cx="960" cy="300" rx="600" ry="400" fill="url(#lightGradient)"/>
  
  <!-- Abstract stage -->
  <rect x="200" y="800" width="1520" height="200" fill="#1f2937" opacity="0.8" rx="20"/>
  
  <!-- Musical elements -->
  <g opacity="0.3">
    <!-- Sound waves -->
    <path d="M 100 400 Q 300 350 500 400 T 900 400 T 1300 400 T 1700 400" stroke="#10b981" stroke-width="3" fill="none"/>
    <path d="M 150 450 Q 350 400 550 450 T 950 450 T 1350 450 T 1650 450" stroke="#10b981" stroke-width="2" fill="none"/>
    <path d="M 200 500 Q 400 450 600 500 T 1000 500 T 1400 500 T 1600 500" stroke="#10b981" stroke-width="2" fill="none"/>
    
    <!-- Musical notes scattered -->
    <g fill="#10b981">
      <circle cx="300" cy="200" r="8"/>
      <rect x="308" y="180" width="3" height="30"/>
      <path d="M 311 180 Q 325 170 325 185" stroke="#10b981" stroke-width="2" fill="none"/>
      
      <circle cx="1500" cy="250" r="8"/>
      <rect x="1508" y="230" width="3" height="30"/>
      <path d="M 1511 230 Q 1525 220 1525 235" stroke="#10b981" stroke-width="2" fill="none"/>
      
      <circle cx="800" cy="150" r="6"/>
      <rect x="806" y="135" width="2" height="25"/>
      
      <circle cx="1200" cy="180" r="6"/>
      <rect x="1206" y="165" width="2" height="25"/>
    </g>
  </g>
  
  <!-- Spotlight beams -->
  <g opacity="0.2">
    <polygon points="400,0 450,0 600,800 500,800" fill="#fbbf24"/>
    <polygon points="800,0 850,0 1000,800 900,800" fill="#fbbf24"/>
    <polygon points="1200,0 1250,0 1400,800 1300,800" fill="#fbbf24"/>
    <polygon points="1500,0 1550,0 1700,800 1600,800" fill="#fbbf24"/>
  </g>
  
  <!-- Crowd silhouettes -->
  <g fill="#111827" opacity="0.6">
    <!-- Left side crowd -->
    <rect x="50" y="700" width="15" height="40" rx="7"/>
    <rect x="80" y="690" width="15" height="50" rx="7"/>
    <rect x="110" y="705" width="15" height="35" rx="7"/>
    <rect x="140" y="695" width="15" height="45" rx="7"/>
    
    <!-- Right side crowd -->
    <rect x="1750" y="700" width="15" height="40" rx="7"/>
    <rect x="1780" y="690" width="15" height="50" rx="7"/>
    <rect x="1810" y="705" width="15" height="35" rx="7"/>
    <rect x="1840" y="695" width="15" height="45" rx="7"/>
  </g>
</svg>