<svg width="24" height="24" viewBox="0 0 24 24" xmlns="http://www.w3.org/2000/svg">
  <defs>
    <linearGradient id="whatsappGradient" x1="0%" y1="0%" x2="100%" y2="100%">
      <stop offset="0%" style="stop-color:#25d366"/>
      <stop offset="100%" style="stop-color:#128c7e"/>
    </linearGradient>
  </defs>
  
  <!-- WhatsApp circle -->
  <circle cx="12" cy="12" r="10" fill="url(#whatsappGradient)"/>
  
  <!-- Phone icon -->
  <path d="M16.75 13.96c-.25-.13-1.47-.72-1.69-.81-.23-.08-.39-.12-.56.12-.17.25-.64.81-.78.97-.14.17-.29.19-.54.06-.25-.12-1.05-.39-2-1.23-.74-.66-1.23-1.47-1.38-1.72-.14-.25-.02-.38.11-.51.11-.11.25-.29.37-.43.12-.14.17-.25.25-.41.08-.17.04-.31-.02-.43-.06-.12-.56-1.34-.76-1.84-.2-.48-.4-.42-.56-.43-.14-.01-.31-.01-.47-.01-.17 0-.43.06-.66.31-.22.25-.86.84-.86 2.05 0 1.21.88 2.37 1 2.53.12.17 1.71 2.61 4.14 3.66.58.25 1.03.4 1.38.51.58.18 1.11.16 1.53.09.47-.07 1.47-.6 1.67-1.18.21-.58.21-1.07.14-1.18-.06-.1-.23-.17-.48-.3z" fill="white"/>
</svg>